<?xml version="1.0" encoding="UTF-8"?> <svg xmlns="http://www.w3.org/2000/svg" id="Layer_1" viewBox="0 0 379.55 74.53"><defs><style>.cls-1{fill:#d6a461;}.cls-2{fill:#154734;}</style></defs><path class="cls-2" d="m108.3,43.56h-3.22l.05-23.06-10.62,17.16h-2.18l-10.71-17.29.09,23.19h-3.22V13.64h2.5l12.44,20.24,12.44-20.24h2.45v29.92Z"></path><path class="cls-2" d="m122.38,34.85l-3.99,8.71h-3.45l14.03-30.14h3.04l14.03,30.14h-3.45l-3.99-8.71h-16.21Zm8.08-17.69l-6.76,14.83h13.57l-6.81-14.83Z"></path><path class="cls-2" d="m155.84,43.56h-3.22V13.64h3.22v29.92Z"></path><path class="cls-2" d="m191.52,43.56h-2.77l-20.16-24.29v24.29h-3.22V13.64h2.68l20.25,24.56V13.64h3.22v29.92Z"></path><path class="cls-2" d="m231.51,21.73h-3.18c-.73-3.65-3.45-6.03-8.62-6.03-4.68,0-7.76,2.2-7.76,5.68,0,2.73,2.22,4.4,6.31,5.1l4.68.88c5.49,1.01,8.58,3.52,8.58,7.79,0,5.46-4.58,9.07-11.48,9.07-7.4,0-12.12-3.74-12.85-10.21h3.18c.77,4.66,4.13,7.39,9.81,7.39,4.95,0,8.08-2.33,8.08-5.9,0-2.51-1.82-4.4-5.81-5.1l-5.36-1.01c-5.67-1.01-8.53-3.78-8.53-7.83,0-5.15,4.4-8.58,10.94-8.58s11.26,2.86,12.03,8.76Z"></path><path class="cls-2" d="m249.72,16.5v27.06h-3.22v-27.06h-11.48v-2.86h26.19v2.86h-11.48Z"></path><path class="cls-2" d="m270.51,32.69v10.87h-3.22V13.64h11.48c6.95,0,11.76,3.65,11.76,9.55,0,4.88-3.36,8.27-8.53,9.24l9.9,11.13h-4.04l-9.67-10.87h-7.67Zm8.17-2.86c5.04,0,8.62-2.51,8.62-6.65s-3.59-6.69-8.62-6.69h-8.17v13.33h8.17Z"></path><path class="cls-2" d="m301.52,27.23h16.39v2.9h-16.39v10.56h18.2v2.86h-21.43V13.64h21.43v2.86h-18.2v10.74Z"></path><path class="cls-2" d="m331.07,27.23h16.39v2.9h-16.39v10.56h18.2v2.86h-21.43V13.64h21.43v2.86h-18.2v10.74Z"></path><path class="cls-2" d="m368.07,16.5v27.06h-3.22v-27.06h-11.48v-2.86h26.19v2.86h-11.48Z"></path><path class="cls-1" d="m181.46,74.4h-2.12v-8.82h-12.3v8.82h-2.12v-19.72h2.12v9.02h12.3v-9.02h2.12v19.72Z"></path><path class="cls-1" d="m181.59,74.53h-2.37v-8.82h-12.05v8.82h-2.37v-19.97h2.37v9.02h12.05v-9.02h2.37v19.97Zm-2.12-.25h1.87v-19.47h-1.87v9.02h-12.55v-9.02h-1.87v19.47h1.87v-8.82h12.55v8.82Z"></path><path class="cls-1" d="m192.02,63.64h10.8v1.92h-10.8v6.96h12v1.89h-14.12v-19.72h14.12v1.89h-12v7.08Z"></path><path class="cls-1" d="m204.15,74.53h-14.37v-19.97h14.37v2.14h-12v6.83h10.8v2.17h-10.8v6.71h12v2.14Zm-14.12-.25h13.87v-1.64h-12v-7.21h10.8v-1.67h-10.8v-7.33h12v-1.64h-13.87v19.47Z"></path><path class="cls-1" d="m214.47,68.66l-2.63,5.74h-2.27l9.25-19.87h2l9.25,19.87h-2.27l-2.63-5.74h-10.68Zm5.33-11.66l-4.46,9.78h8.95l-4.49-9.78Z"></path><path class="cls-1" d="m230.25,74.53h-2.55l-2.63-5.74h-10.52l-2.63,5.74h-2.55l.08-.18,9.28-19.94h2.16l.03.07,9.33,20.05Zm-2.39-.25h2l-9.13-19.62h-1.85l-9.13,19.62h2l2.63-5.74h10.84l2.63,5.74Zm-3.39-7.38h-9.34l4.65-10.2,4.68,10.2Zm-8.95-.25h8.56l-4.29-9.35-4.26,9.35Z"></path><path class="cls-1" d="m249.98,74.4h-13.47v-19.72h2.12v17.87h11.34v1.86Z"></path><path class="cls-1" d="m250.11,74.53h-13.72v-19.97h2.37v17.87h11.34v2.11Zm-13.47-.25h13.22v-1.61h-11.34v-17.87h-1.87v19.47Z"></path><path class="cls-1" d="m259.83,56.56v17.84h-2.12v-17.84h-7.57v-1.89h17.27v1.89h-7.57Z"></path><path class="cls-1" d="m259.95,74.53h-2.37v-17.84h-7.57v-2.14h17.52v2.14h-7.57v17.84Zm-2.12-.25h1.87v-17.84h7.57v-1.64h-17.02v1.64h7.57v17.84Z"></path><path class="cls-1" d="m290.08,74.4h-2.12v-8.82h-12.3v8.82h-2.12v-19.72h2.12v9.02h12.3v-9.02h2.12v19.72Z"></path><path class="cls-1" d="m290.2,74.53h-2.37v-8.82h-12.05v8.82h-2.37v-19.97h2.37v9.02h12.05v-9.02h2.37v19.97Zm-2.12-.25h1.87v-19.47h-1.87v9.02h-12.55v-9.02h-1.87v19.47h1.87v-8.82h12.55v8.82Z"></path><path class="cls-1" d="m154.11,65.32h-74.61c-.55,0-1-.45-1-1s.45-1,1-1h74.61c.55,0,1,.45,1,1s-.45,1-1,1Z"></path><path class="cls-1" d="m378.38,65.32h-77.66c-.55,0-1-.45-1-1s.45-1,1-1h77.66c.55,0,1,.45,1,1s-.45,1-1,1Z"></path><path class="cls-2" d="m58.91,25.27c-.06,0-.13,0-.19.02L.59,39.76c-.35.09-.59.4-.59.75v13.89c0,.23.1.44.27.59.18.15.4.21.63.18l58.49-9.4c.38-.06.66-.4.65-.78l-.36-18.95c0-.24-.12-.46-.3-.6-.14-.11-.3-.16-.47-.16Z"></path><path class="cls-2" d="m47.85,25.91c0-.09-.06-.17-.14-.21L4.94,6.81c-.11-.05-.2,0-.25.02-.05.03-.11.09-.11.19v18.17c0,.1.07.19.17.22l20.39,6.71,22.72-5.66v-.57Z"></path><path class="cls-1" d="m24.35,13.74l7.58,3.35v-7.86c.99-.98,1.61-2.33,1.61-3.84,0-2.98-2.42-5.4-5.4-5.4s-5.4,2.42-5.4,5.4c0,1.5.62,2.86,1.61,3.84v4.51Z"></path><path class="cls-1" d="m33.03,51.5l-10.1,1.63v4.04c0,.42.34.76.76.76h.66v15.69h7.58v-15.69h.66c.42,0,.76-.34.76-.76v-5.06c0-.25-.13-.47-.32-.61Z"></path></svg> 